#!OML:ASF F:\VICON\USERDATA\INSTALL\rory3\rory3.ASF
:FULLY-SPECIFIED
:DEGREES
974
root 0.0495361 16.9096 17.1678 -158.758 -32.3891 -175.936
lowerback -14.6016 1.92486 2.61666
upperback -7.34326 1.32721 2.42663
thorax 0.444118 0.276714 1.25104
lowerneck -13.1214 0.552877 -2.37018
upperneck 42.0639 -4.60319 3.644
head 18.0291 -3.14577 0.826861
rclavicle 6.9351e-014 -1.35174e-014
rhumerus -74.0355 41.7219 -120.72
rradius 50.2938
rwrist -44.2481
rhand 21.5129 -2.91143
rfingers 7.12502
rthumb 45.9417 -26.0302
lclavicle 6.9351e-014 -1.35174e-014
lhumerus -59.3009 -19.249 101.253
lradius 40.3273
lwrist 12.4709
lhand 25.4364 21.362
lfingers 7.12502
lthumb 49.5615 42.812
rfemur -31.9211 2.61348 36.5944
rtibia 27.2789
rfoot -40.5693 -30.8605
rtoes 40.0156
lfemur -28.5592 31.1535 -24.7088
ltibia 56.0884
lfoot 33.2704 39.4218
ltoes 35.5021
975
root 0.0422931 16.9076 17.1595 -158.758 -32.2952 -175.92
lowerback -14.6265 2.02144 2.67545
upperback -7.35814 1.44796 2.33423
thorax 0.445245 0.333597 1.13968
lowerneck -13.028 0.519404 -2.21681
upperneck 42.0485 -4.7282 3.66635
head 17.9998 -3.17229 0.786811
rclavicle 9.64603e-014 5.56597e-015
rhumerus -73.8467 41.4372 -120.578
rradius 50.2746
rwrist -44.2186
rhand 21.4857 -2.7877
rfingers 7.12502
rthumb 45.9165 -25.9169
lclavicle 9.64603e-014 5.56597e-015
lhumerus -59.3493 -19.4847 101.299
lradius 40.2013
lwrist 12.3393
lhand 25.316 21.1776
lfingers 7.12502
lthumb 49.4511 42.6838
rfemur -31.8523 2.53325 36.6254
rtibia 27.2221
rfoot -40.4743 -30.6997
rtoes 40.1612
lfemur -28.482 31.2455 -24.7258
ltibia 56.0568
lfoot 32.3204 39.996
ltoes 37.7364
976
root 0.0372211 16.9069 17.1495 -158.766 -32.2043 -176.133
lowerback -14.5015 1.97239 2.43305
upperback -7.33887 1.42881 2.32485
thorax 0.393368 0.334062 1.26064
lowerneck -13.0077 0.55741 -2.12529
upperneck 42.0969 -4.67128 3.56469
head 18.0135 -3.15257 0.7324
rclavicle 7.90666e-014 1.23246e-014
rhumerus -74.1773 41.6017 -120.929
rradius 50.384
rwrist -44.4672
rhand 21.5527 -2.9565
rfingers 7.12502
rthumb 45.9787 -26.0599
lclavicle 7.90666e-014 1.23246e-014
lhumerus -59.4811 -19.4731 101.419
lradius 40.3673
lwrist 12.2771
lhand 25.3976 20.6861
lfingers 7.12502
lthumb 49.526 42.1542
rfemur -31.6475 2.78612 36.3427
rtibia 27.2167
rfoot -40.9048 -30.5917
rtoes 40.6837
lfemur -28.2148 31.3525 -24.8425
ltibia 55.9677
lfoot 31.7735 40.4515
ltoes 37.3888
977
root 0.0160162 16.9101 17.1719 -158.235 -32.0199 -176.045
lowerback -14.8166 2.1436 2.8443
upperback -7.57237 1.54908 2.24306
thorax 0.327059 0.359181 0.967479
lowerneck -12.8634 0.60311 -2.09438
upperneck 42.1199 -4.63192 3.54974
head 17.9848 -3.14422 0.727062
rclavicle -7.00219e-014 2.78299e-014
rhumerus -74.6854 41.8521 -121.506
rradius 50.5166
rwrist -44.9688
rhand 21.5178 -3.32878
rfingers 7.12502
rthumb 45.9463 -26.4456
lclavicle -7.00219e-014 2.78299e-014
lhumerus -59.6472 -19.4596 101.525
lradius 40.5141
lwrist 12.3235
lhand 25.4999 20.3165
lfingers 7.12502
lthumb 49.6197 41.7367
rfemur -32.3601 2.29597 36.4719
rtibia 27.2535
rfoot -40.0256 -30.2523
rtoes 40.1318
lfemur -29.129 31.2503 -25.4611
ltibia 56.0059
lfoot 31.2468 40.965
ltoes 37.0518
978
root 0.0203148 16.9076 17.1263 -158.832 -32.3893 -176.264
lowerback -14.4196 1.76469 2.38097
upperback -7.38136 1.16015 2.40496
thorax 0.30352 0.200223 1.33281
lowerneck -12.7479 0.72378 -2.06742
upperneck 42.1239 -4.43998 3.48903
head 17.9422 -3.07961 0.729203
rclavicle 6.10269e-014 7.15625e-015
rhumerus -75.2203 42.2297 -122.071
rradius 50.6564
rwrist -45.352
rhand 21.5191 -3.75128
rfingers 7.12502
rthumb 45.9475 -26.8677
lclavicle 6.10269e-014 7.15625e-015
lhumerus -59.6392 -19.0532 101.368
lradius 40.3519
lwrist 12.1733
lhand 25.563 20.257
lfingers 7.12502
lthumb 49.6776 41.6475
rfemur -31.4355 2.89295 36.1933
rtibia 27.288
rfoot -41.2085 -30.9399
rtoes 40.3736
lfemur -27.8683 31.3166 -24.7656
ltibia 55.8657
lfoot 32.1461 40.2456
ltoes 36.5023
979
root -0.0106355 16.9163 17.1541 -158.085 -32.139 -176.122
lowerback -14.8565 1.87004 2.96653
upperback -7.665 1.14587 2.43431
thorax 0.247262 0.146497 1.0393
lowerneck -12.7041 0.868651 -2.14805
upperneck 42.0912 -4.11525 3.35341
head 17.8889 -2.98164 0.741058
rclavicle -3.7297e-014 3.97569e-014
rhumerus -75.6498 42.7454 -122.4
rradius 50.7346
rwrist -45.3889
rhand 21.7719 -3.89107
rfingers 7.12502
rthumb 46.182 -26.9094
lclavicle -3.7297e-014 3.97569e-014
lhumerus -59.3232 -18.3126 101.125
lradius 40.0032
lwrist 11.8968
lhand 25.6171 20.2189
lfingers 7.12502
lthumb 49.7272 41.5837
rfemur -32.4524 1.88279 36.449
rtibia 27.2831
rfoot -39.5935 -30.3499
rtoes 39.6582
lfemur -29.0576 31.0941 -25.5892
ltibia 55.8643
lfoot 31.4823 40.9704
ltoes 36.5351
980
root -0.00904393 16.912 17.121 -158.594 -32.2898 -176.163
lowerback -14.6758 2.15536 2.87054
upperback -7.62764 1.58268 2.02267
thorax 0.201692 0.373758 0.723855
lowerneck -11.8989 0.546154 -1.58727
upperneck 41.8671 -4.93086 3.54233
head 17.5825 -3.22245 0.58817
rclavicle 3.08613e-014 -3.85642e-014
rhumerus -74.6487 41.0186 -121.533
rradius 50.4927
rwrist -44.8729
rhand 21.9885 -3.81632
rfingers 7.12502
rthumb 46.3828 -26.7497
lclavicle 3.08613e-014 -3.85642e-014
lhumerus -59.8703 -19.7095 101.395
lradius 39.936
lwrist 12.0087
lhand 25.5433 20.0001
lfingers 7.12502
lthumb 49.6595 41.3998
rfemur -31.7323 2.07367 36.4055
rtibia 27.2952
rfoot -40.2659 -30.4246
rtoes 40.1081
lfemur -28.1085 31.301 -25.037
ltibia 55.7122
lfoot 33.4686 40.0518
ltoes 33.8692
981
root -0.021824 16.9124 17.1191 -158.537 -32.2468 -175.928
lowerback -14.8868 2.03744 3.07462
upperback -7.51872 1.37533 2.29301
thorax 0.424493 0.269551 0.866174
lowerneck -12.3294 0.676095 -1.96369
upperneck 41.9711 -4.58896 3.55214
head 17.7479 -3.12722 0.71759
rclavicle -2.52208e-015 -4.77083e-015
rhumerus -74.6458 41.6193 -121.433
rradius 50.488
rwrist -44.9312
rhand 21.9991 -3.8768
rfingers 7.12502
rthumb 46.3926 -26.806
lclavicle -2.52208e-015 -4.77083e-015
lhumerus -59.4377 -19.0374 101.225
lradius 39.8604
lwrist 11.9662
lhand 25.4792 19.9673
lfingers 7.12502
lthumb 49.6008 41.3972
rfemur -31.9055 1.78572 36.6644
rtibia 27.2946
rfoot -39.8277 -30.2671
rtoes 39.9313
lfemur -28.3236 31.4322 -25.0135
ltibia 55.6846
lfoot 35.0585 39.4504
ltoes 28.6912
982
root -0.0325212 16.9163 17.1153 -158.387 -32.127 -176.044
lowerback -14.8916 1.99574 3.06258
upperback -7.49307 1.32244 2.30647
thorax 0.453235 0.244937 0.87924
lowerneck -12.6589 0.712417 -2.20745
upperneck 42.0819 -4.49206 3.64662
head 17.9055 -3.10657 0.818985
rclavicle -1.89094e-014 -4.6118e-014
rhumerus -74.4408 41.7883 -121.196
rradius 50.5346
rwrist -45.0546
rhand 22.0709 -4.09507
rfingers 7.12502
rthumb 46.4592 -26.9959
lclavicle -1.89094e-014 -4.6118e-014
lhumerus -59.3313 -18.8764 101.237
lradius 39.9285
lwrist 12.1214
lhand 25.4567 20.473
lfingers 7.12502
lthumb 49.5801 41.9135
rfemur -31.964 1.89651 36.4902
rtibia 27.2909
rfoot -39.698 -30.4381
rtoes 39.8482
lfemur -28.3742 31.4899 -25.2533
ltibia 55.5958
lfoot 36.0796 38.9417
ltoes 25.6315
983
root -0.0383996 16.9169 17.1093 -158.289 -31.9498 -176.126
lowerback -14.7512 2.09032 3.04518
upperback -7.60301 1.45444 2.20416
thorax 0.266073 0.303536 0.798398
lowerneck -12.7254 0.693256 -2.22159
upperneck 42.2099 -4.58544 3.70804
head 18.0087 -3.14554 0.829349
rclavicle -4.19436e-014 1.03368e-014
rhumerus -74.2447 41.4629 -120.955
rradius 50.5254
rwrist -45.1138
rhand 22.0845 -4.27952
rfingers 7.12502
rthumb 46.4718 -27.175
lclavicle -4.19436e-014 1.03368e-014
lhumerus -59.5976 -19.0723 101.359
lradius 40.0701
lwrist 12.2587
lhand 25.5298 20.5849
lfingers 7.12502
lthumb 49.6471 41.991
rfemur -31.9992 2.26382 36.2867
rtibia 27.3123
rfoot -39.8421 -30.5996
rtoes 39.7571
lfemur -28.4223 31.564 -25.4429
ltibia 55.5651
lfoot 36.029 39.0938
ltoes 25.2365
984
root -0.0474512 16.9156 17.1037 -158.269 -31.893 -176.149
lowerback -14.6285 2.12714 3.10167
upperback -7.6974 1.49843 2.14221
thorax 0.105072 0.317156 0.705378
lowerneck -12.5598 0.692902 -2.0386
upperneck 42.1842 -4.61737 3.60971
head 17.9424 -3.14995 0.745277
rclavicle -1.97045e-014 2.78299e-015
rhumerus -74.3129 41.3204 -121.027
rradius 50.5248
rwrist -45.1255
rhand 22.0215 -4.16215
rfingers 7.12502
rthumb 46.4134 -27.0825
lclavicle -1.97045e-014 2.78299e-015
lhumerus -59.7757 -19.1655 101.441
lradius 40.0065
lwrist 12.3453
lhand 25.4692 20.5649
lfingers 7.12502
lthumb 49.5916 41.9994
rfemur -32.0401 2.16395 36.265
rtibia 27.4135
rfoot -39.8455 -30.4362
rtoes 39.7741
lfemur -28.3643 31.521 -25.4982
ltibia 55.5053
lfoot 35.3669 39.6927
ltoes 26.1217
985
root -0.0587225 16.9128 17.1011 -158.196 -31.9727 -176.205
lowerback -14.6786 2.07701 3.11938
upperback -7.69406 1.42495 2.1683
thorax 0.134126 0.279901 0.713035
lowerneck -12.492 0.696413 -2.01423
upperneck 42.1612 -4.58767 3.53065
head 17.9046 -3.1467 0.710343
rclavicle -6.66923e-014 -3.93594e-014
rhumerus -74.4587 41.5078 -121.125
rradius 50.5888
rwrist -45.1735
rhand 21.7541 -3.86092
rfingers 7.12502
rthumb 46.1655 -26.8862
lclavicle -6.66923e-014 -3.93594e-014
lhumerus -59.7415 -19.1969 101.615
lradius 39.8487
lwrist 12.4561
lhand 25.2261 20.7433
lfingers 7.12502
lthumb 49.3686 42.2914
rfemur -32.1441 1.84611 36.2711
rtibia 27.4986
rfoot -39.7656 -30.1799
rtoes 39.7538
lfemur -28.3647 31.2924 -25.5763
ltibia 55.4577
lfoot 35.5723 39.492
ltoes 25.4867
986
root -0.0711699 16.9121 17.0909 -158 -31.9927 -176.452
lowerback -14.928 2.00468 2.93047
upperback -7.61594 1.34517 2.14399
thorax 0.343992 0.249868 0.787062
lowerneck -12.5423 0.713902 -2.02551
upperneck 42.182 -4.57215 3.55673
head 17.9312 -3.1377 0.726613
rclavicle 2.82771e-014 4.77083e-014
rhumerus -74.4313 41.6892 -121.138
rradius 50.5894
rwrist -45.269
rhand 21.4551 -3.51815
rfingers 7.12502
rthumb 45.8881 -26.6591
lclavicle 2.82771e-014 4.77083e-014
lhumerus -59.5425 -19.2003 101.614
lradius 39.6687
lwrist 12.4203
lhand 25.3372 21.3103
lfingers 7.12502
lthumb 49.4706 42.8067
rfemur -32.2387 1.44173 36.1418
rtibia 27.5877
rfoot -39.5988 -29.9121
rtoes 39.6004
lfemur -28.3251 31.0996 -25.8377
ltibia 55.3667
lfoot 35.2634 39.3919
ltoes 25.9141
987
root -0.0824312 16.9114 17.0781 -158.018 -32.0361 -176.419
lowerback -15.0954 1.90488 2.91026
upperback -7.58908 1.19971 2.23858
thorax 0.457184 0.178322 0.878518
lowerneck -12.4747 0.808821 -2.05923
upperneck 42.205 -4.42723 3.55
head 17.919 -3.09286 0.755519
rclavicle 7.86069e-014 -4.77083e-015
rhumerus -74.6539 41.8787 -121.303
rradius 50.639
rwrist -45.3784
rhand 21.1471 -3.32255
rfingers 7.12502
rthumb 45.6022 -26.5809
lclavicle 7.86069e-014 -4.77083e-015
lhumerus -59.4196 -18.8657 101.478
lradius 39.4341
lwrist 12.1525
lhand 25.3599 21.4312
lfingers 7.12502
lthumb 49.4913 42.917
rfemur -32.1917 1.34362 36.1914
rtibia 27.6432
rfoot -39.6107 -29.8388
rtoes 39.7621
lfemur -28.2177 31.1308 -25.7839
ltibia 55.2969
lfoot 33.6214 39.9632
ltoes 28.1705
988
root -0.0943704 16.9115 17.0695 -157.97 -31.9007 -176.472
lowerback -15.1961 1.78566 2.73952
upperback -7.57454 1.04902 2.39229
thorax 0.51856 0.107747 1.11403
lowerneck -12.3472 0.931309 -2.02164
upperneck 42.1318 -4.13682 3.33577
head 17.8156 -3.00007 0.704333
rclavicle 6.85807e-014 1.66979e-014
rhumerus -75.0977 42.3383 -121.659
rradius 50.7158
rwrist -45.5774
rhand 21.182 -3.43272
rfingers 7.12502
rthumb 45.6346 -26.6779
lclavicle 6.85807e-014 1.66979e-014
lhumerus -59.2658 -18.392 101.422
lradius 39.2121
lwrist 11.9293
lhand 25.2429 20.7943
lfingers 7.12502
lthumb 49.384 42.3345
rfemur -32.17 1.57829 36.0219
rtibia 27.6465
rfoot -39.656 -29.9212
rtoes 39.8525
lfemur -28.1618 31.2706 -25.92
ltibia 55.2266
lfoot 31.8931 40.5839
ltoes 33.3326
